# xmcd
#
# Track frame offsets:
#	150
#	18092
#	33167
#	64675
#	91607
#	107297
#	123437
#	144050
#	163940
#	186927
#	209522
#	229720
#	254290
#	270052
#	284960
#	306105
#
# Disc length: 4337 seconds
#
# Revision: 2
# Processed by: cddbd v1.5.2PL0 Copyright (c) Steve Scherf et al.
# Submitted via: EasyCDDAExtractor 7.1.3.1
#
DISCID=cf10ef10
DTITLE=Various Artist - The Best of New Fashioned Love songs
DYEAR=1986
DGENRE=Blues
TTITLE0=Eternal flames - Bangles
TTITLE1=Because I love you - Shakin'Stevens
TTITLE2=Total eclipse of the heart - Bonnie Tayler
TTITLE3=Through the barricades - Spandau ballet
TTITLE4=Dust in the wind - Kansas
TTITLE5=Always on my mind - Willie Nelson
TTITLE6=Unchained melody - Heart
TTITLE7=She's not there - Santana
TTITLE8=Careless whisper - Wham!
TTITLE9=Smooth operator - Sade
TTITLE10=Last Christmas - Wham!
TTITLE11=Everytime you go away - Paul Young
TTITLE12=Words get in the way - Miami sound machine
TTITLE13=Longer - Dan Fogelberg
TTITLE14=See the day - Dee C. Lee
TTITLE15=Danny's song - Loggins and Messina
EXTD=The best of New fashioned love songs
EXTT0=
EXTT1=
EXTT2=
EXTT3=
EXTT4=
EXTT5=
EXTT6=
EXTT7=
EXTT8=
EXTT9=
EXTT10=
EXTT11=
EXTT12=
EXTT13=
EXTT14=
EXTT15=
PLAYORDER=
